<svg id="Layer_1" data-name="Layer 1" xmlns="http://www.w3.org/2000/svg" xmlns:xlink="http://www.w3.org/1999/xlink" viewBox="0 0 264.58 238.59"><defs><style>.cls-1{fill:#d1d1d1;}.cls-2{fill:url(#linear-gradient);}.cls-3{fill:url(#linear-gradient-2);}.cls-4{fill:url(#linear-gradient-3);}.cls-5{fill:url(#linear-gradient-4);}</style><linearGradient id="linear-gradient" x1="78.77" y1="165.13" x2="97.05" y2="161.71" gradientUnits="userSpaceOnUse"><stop offset="0" stop-color="#26038a"/><stop offset="0.99" stop-color="#00a2c7"/></linearGradient><linearGradient id="linear-gradient-2" x1="67.91" y1="163.92" x2="92.08" y2="159.4" xlink:href="#linear-gradient"/><linearGradient id="linear-gradient-3" x1="54.42" y1="165.8" x2="89.07" y2="159.31" xlink:href="#linear-gradient"/><linearGradient id="linear-gradient-4" x1="59.1" y1="163.94" x2="96.2" y2="157.89" gradientUnits="userSpaceOnUse"><stop offset="0" stop-color="#0231b8"/><stop offset="1" stop-color="#00a2c7"/></linearGradient></defs><title>Artboard 13 copy 3</title><path class="cls-1" d="M132.63,132.48a3.57,3.57,0,0,0-1.89.61,3.61,3.61,0,0,0-1.28,1.64,3.34,3.34,0,0,0-.25,1.28,3.08,3.08,0,0,0,.07.68,7.12,7.12,0,0,0-6.49-.14,7,7,0,0,0-4,6.42,7,7,0,0,0,1.85,4.81,7.08,7.08,0,0,0,10.13.36l.07-.05.07-.05a2.54,2.54,0,0,1,1.82-.71,2.61,2.61,0,0,1,1.89.77,2.56,2.56,0,0,1,.78,1.91,2.52,2.52,0,0,1-.82,1.89l0,.07a12.62,12.62,0,0,1-4,2.57,12.44,12.44,0,0,1-10.32-.41,12.36,12.36,0,0,1-4.37-3.69,12.2,12.2,0,0,1-2.46-7.45,12,12,0,0,1,3.46-8.63A12.59,12.59,0,0,1,121,131.5a12.39,12.39,0,0,1,11.66,1Z"/><path class="cls-1" d="M150.78,130.48h.61a7.57,7.57,0,0,1,5.06,12.8,8,8,0,0,1-2,1.53l3.71,4.49a5.06,5.06,0,0,0-.61,0,3.39,3.39,0,0,0-2.39.93,3.34,3.34,0,0,0-1.14,2.5l-5.6-6.81,0,0-.14-.21h-4.64v7.13a2.67,2.67,0,0,1-2.67,2.67,2.7,2.7,0,0,1-1.93-.78,2.64,2.64,0,0,1-.75-1.89V139a3.43,3.43,0,0,0,1.14.86,3.38,3.38,0,0,0,1.53.36l1.25,0h9a2.2,2.2,0,0,0,1.21-.43,2.17,2.17,0,0,0,.89-1.82,2.24,2.24,0,0,0-2.14-2.21h-7.49v1a2.47,2.47,0,0,1-.89,1.93,2.57,2.57,0,0,1-1.78.68,2.68,2.68,0,0,1-2.67-2.53v-3.82a2.55,2.55,0,0,1,.64-1.71,2.5,2.5,0,0,1,2-.93h9.91Zm8.6,20.49a3.26,3.26,0,0,1,.5.57,2.6,2.6,0,0,1,.46,1.5,2.57,2.57,0,0,1-1,2.07,2.5,2.5,0,0,1-1.68.61h-.29a2.72,2.72,0,0,1-1.39-.61,2.62,2.62,0,0,1-.75-.89A2.74,2.74,0,0,1,155,153a2.62,2.62,0,0,1,2.67-2.67A2.65,2.65,0,0,1,159.39,151Z"/><path class="cls-1" d="M169.58,130.48a3.3,3.3,0,0,0-.93,1.21,3.89,3.89,0,0,0-.29,1.46v7.13h11a2.68,2.68,0,0,1,1.71,4.74,2.65,2.65,0,0,1-1.71.61h-11v1.07a2.5,2.5,0,0,1-1,2,2.7,2.7,0,0,1-1.68.57,2.52,2.52,0,0,1-2.18-1.11,2.58,2.58,0,0,1-.5-1.43V133.12a2.42,2.42,0,0,1,.64-1.68,2.46,2.46,0,0,1,2-1h3.92Zm-1.21,19.61h14a2.55,2.55,0,0,1,1.82.82,2.67,2.67,0,0,1-1.93,4.53H165.69a2.7,2.7,0,0,1-1.93-.78,2.64,2.64,0,0,1-.75-1.89v-3.89a3.35,3.35,0,0,0,2.67,1.21Zm13.91-19.61h.07a2.58,2.58,0,0,1,1.75.71,2.68,2.68,0,0,1-1.71,4.64H171.75a2.47,2.47,0,0,1-2-1,2.7,2.7,0,0,1-.57-1.68,2.76,2.76,0,0,1,.46-1.53,2.45,2.45,0,0,1,2.07-1.14Z"/><path class="cls-1" d="M197.89,136.79a2.56,2.56,0,0,1,1.32.36,2.63,2.63,0,0,1,1.28,1.57,3,3,0,0,1,.11.78,2.59,2.59,0,0,1-.25,1.11L192.86,154a2.78,2.78,0,0,1-1,1,2.62,2.62,0,0,1-1.39.39,2.56,2.56,0,0,1-1.93-.82,2.6,2.6,0,0,1-.75-1.85,2.71,2.71,0,0,1,.32-1.28l7.52-13.41a2.42,2.42,0,0,1,2.18-1.28Zm7.29,15.32a2.15,2.15,0,0,1,.28,1.11,2.21,2.21,0,0,1-.63,1.58,2.5,2.5,0,0,1-.53.4,2.18,2.18,0,0,1-.91.27l-12.9,0a2.33,2.33,0,0,1-1.17-.31,2.2,2.2,0,0,1-.86-.86,2.15,2.15,0,0,1-.19-1.75,2.18,2.18,0,0,1,1.05-1.31,2.27,2.27,0,0,1,1.07-.29l12.91,0a2,2,0,0,1,1.83,1.07Zm-2.87-21.49a2.52,2.52,0,0,1,.75.39,2.93,2.93,0,0,1,.78.93l10.91,19.54a2.5,2.5,0,0,1,.36,1.28,2.64,2.64,0,0,1-.82,1.93,2.67,2.67,0,0,1-3.24.36,2.77,2.77,0,0,1-1-1L201,137.79a3.87,3.87,0,0,0-.61-.78,3.11,3.11,0,0,0-.71-.54l-.07-.07a3.83,3.83,0,0,0-1.32-.39h-.36a3.43,3.43,0,0,0-1.21.21L199,132a2.77,2.77,0,0,1,2.42-1.5A2.5,2.5,0,0,1,202.31,130.62Z"/><path class="cls-1" d="M118.9,163a2.93,2.93,0,0,1,.93.68l11.73,13.87a3.71,3.71,0,0,0,1,.89,3.83,3.83,0,0,0,1.85.46,3.69,3.69,0,0,0,1.6-.36,3.77,3.77,0,0,0,1.07-.75v7.27a2.57,2.57,0,0,1-.68,1.78,2.61,2.61,0,0,1-2,.89,2.51,2.51,0,0,1-2.1-1L120.68,173a1.41,1.41,0,0,0-.18-.21,3.47,3.47,0,0,0-1.07-.78,3.61,3.61,0,0,0-1.57-.36h-.07a3.69,3.69,0,0,0-1.6.36,3.07,3.07,0,0,0-1,.78v-7.31a2.56,2.56,0,0,1,.82-1.93,2.6,2.6,0,0,1,1.85-.75A2.7,2.7,0,0,1,118.9,163Zm-1,9.38a2.75,2.75,0,0,1,1.25.29,2.29,2.29,0,0,1,1.39,2.1v10.31a2.52,2.52,0,0,1-.75,1.85,2.67,2.67,0,0,1-4.07-.25,2.61,2.61,0,0,1-.53-1.6V174.77a2.35,2.35,0,0,1,.82-1.71,2.62,2.62,0,0,1,1.82-.68Zm18.29-9a2.65,2.65,0,0,1,1,2v10.34a2.3,2.3,0,0,1-1,1.82,2.87,2.87,0,0,1-1.71.53,2.61,2.61,0,0,1-2.18-1,2.08,2.08,0,0,1-.5-1.35V165.46a2.56,2.56,0,0,1,.82-1.93,2.52,2.52,0,0,1,1.85-.75A2.55,2.55,0,0,1,136.16,163.43Z"/><path class="cls-1" d="M144.58,165.59a12,12,0,0,1,7.81-2.8,12.2,12.2,0,0,1,6.26,1.68,12.51,12.51,0,0,1,0,21.61,12.19,12.19,0,0,1-6.26,1.68,12.43,12.43,0,0,1-12.16-9.91,3.2,3.2,0,0,0,.93.64,3.89,3.89,0,0,0,1.46.29,3.68,3.68,0,0,0,1.93-.53,3.75,3.75,0,0,0,1-1,7.1,7.1,0,0,0,6.85,5.21,6.82,6.82,0,0,0,5-2.09,7.19,7.19,0,0,0,0-10.09,7.05,7.05,0,0,0-9.31-.62,7,7,0,0,0-2.53,3.74,3.61,3.61,0,0,0-1.39-1.21,3.34,3.34,0,0,0-1.57-.39,3.26,3.26,0,0,0-1.25.25,3.57,3.57,0,0,0-1.14.71A12.27,12.27,0,0,1,144.58,165.59Z"/><path class="cls-1" d="M192.9,162.86a2.73,2.73,0,0,1,1.43.82,2.57,2.57,0,0,1,.68,1.78v6a3.58,3.58,0,0,0-2.67-1.21,3.48,3.48,0,0,0-1.64.39,5.94,5.94,0,0,0-1.05.82l-.77.71-5.74,5.13a.1.1,0,0,1-.07,0v0a2.78,2.78,0,0,1-.68.39,2.6,2.6,0,0,1-1,.21,2.44,2.44,0,0,1-1.21-.32,3.69,3.69,0,0,1-.57-.36l-5.6-5-.55-.52q-.48-.45-.77-.66a3.39,3.39,0,0,0-.86-.54,3.29,3.29,0,0,0-1.43-.32,3.44,3.44,0,0,0-1.68.43,3.69,3.69,0,0,0-1,.82v-6.17a2.64,2.64,0,0,1,.3-1.11,2.86,2.86,0,0,1,.7-.86,2.67,2.67,0,0,1,1.5-.54.32.32,0,0,1,.14,0,2.87,2.87,0,0,1,1.5.43q.28.21.68.57l8.84,7.92,9-8.06.18-.14a2.83,2.83,0,0,1,.71-.46,3.22,3.22,0,0,1,.68-.21,1.83,1.83,0,0,1,.36,0h.11A2.23,2.23,0,0,1,192.9,162.86Zm-20.83,8.81a2.58,2.58,0,0,1,1,2v11.45a2.67,2.67,0,0,1-2.67,2.67,2.7,2.7,0,0,1-1.93-.78,2.64,2.64,0,0,1-.75-1.89V173.63a2.48,2.48,0,0,1,.78-1.78,2.58,2.58,0,0,1,1.89-.78A2.65,2.65,0,0,1,172.07,171.67Zm22.22.21a2.5,2.5,0,0,1,.71,1.68v11.52a2.67,2.67,0,0,1-2.67,2.67,2.62,2.62,0,0,1-2.67-2.67V173.59a2.41,2.41,0,0,1,.82-1.85,2.67,2.67,0,0,1,1.85-.71A2.55,2.55,0,0,1,194.29,171.88Z"/><path class="cls-1" d="M202.52,163.68a2.57,2.57,0,0,1,.68,1.78V173a3.31,3.31,0,0,0-2.67-1.25,3.42,3.42,0,0,0-2.67,1.21v-7.56a2.55,2.55,0,0,1,.64-1.71,2.5,2.5,0,0,1,2-.93h.07A2.51,2.51,0,0,1,202.52,163.68ZM203.2,185v0a2.67,2.67,0,0,1-2.67,2.67,2.68,2.68,0,0,1-2.67-2.67v-7.52a3.38,3.38,0,0,0,2.67,1.25,3.28,3.28,0,0,0,2.67-1.28Z"/><path class="cls-1" d="M233.11,177.74a5.81,5.81,0,0,0-3.49-1.34,5.68,5.68,0,0,0-1.08,0,5.52,5.52,0,0,0-1.51.4,7,7,0,0,0-3,2.57,8.12,8.12,0,0,0-.58,1l-.06,0a7.08,7.08,0,0,1-10.13-.36,7.21,7.21,0,0,1-.32-9.27,7.08,7.08,0,0,1,2.46-2,7.12,7.12,0,0,1,6.49.14,3.08,3.08,0,0,1-.07-.68,3.35,3.35,0,0,1,.25-1.28,3.61,3.61,0,0,1,1.28-1.64,3.57,3.57,0,0,1,1.89-.61,12.39,12.39,0,0,0-11.66-1,12.6,12.6,0,0,0-4.07,2.84,12,12,0,0,0-3.46,8.63,12.2,12.2,0,0,0,2.46,7.45,12.36,12.36,0,0,0,4.37,3.69,12.44,12.44,0,0,0,10.32.41,12.61,12.61,0,0,0,4-2.57l0-.07c.38-.37,1.25-1.91,1.53-2.26h0l.11,0a2.65,2.65,0,0,1,3,.71,3.17,3.17,0,0,0-1.2-2.54l0,0,0,0a2.85,2.85,0,0,1,3.76.24A3.33,3.33,0,0,0,233.11,177.74Z"/><path class="cls-1" d="M220.67,136.13a1.3,1.3,0,0,0,.25.77l.15.17a2.25,2.25,0,0,0,.37.29,1.34,1.34,0,0,0,.63.13h2.75a.89.89,0,0,1,.62.24,1,1,0,0,1,.35.73v0a1,1,0,0,1-.32.72.92.92,0,0,1-.64.25h-6a.91.91,0,0,1-.66-.26.94.94,0,0,1-.31-.72,1,1,0,0,1,.28-.71l.15-.12,2.41-1.81A1.62,1.62,0,0,0,220.67,136.13Zm2.37-5.84h.14a2.83,2.83,0,0,1,1.21.35,3,3,0,0,1,.79.69,2.79,2.79,0,0,1,.19,3.19,2.81,2.81,0,0,1-.82.86l-2,1.51-.06.05a.93.93,0,0,1-.54.17,1,1,0,0,1-.41-.09,1,1,0,0,1-.37-.31,1,1,0,0,1-.19-.59.43.43,0,0,1,0-.1.92.92,0,0,1,.33-.64l2.1-1.57a1.66,1.66,0,0,0,.28-.24.81.81,0,0,0,.17-.5.82.82,0,0,0-.76-.82h-3.46A.91.91,0,0,1,219,132a.94.94,0,0,1-.31-.72,1,1,0,0,1,.28-.71,1,1,0,0,1,.68-.27H223Z"/><path class="cls-1" d="M231.75,130.29a2.76,2.76,0,0,1,2.75,2.78v3.61a2.71,2.71,0,0,1-.77,1.94,2.64,2.64,0,0,1-2,.84h-2.19a2.65,2.65,0,0,1-1.27-.31,2.83,2.83,0,0,1-1-.85,2.75,2.75,0,0,1-.5-1.61v-1a1.22,1.22,0,0,0,1,.46,1.19,1.19,0,0,0,1-.46v1a.78.78,0,0,0,.22.55.76.76,0,0,0,.59.26h2.19a.82.82,0,0,0,.81-.81v-3.61a.82.82,0,0,0-.81-.81h-2.19a.77.77,0,0,0-.64.33.75.75,0,0,0-.17.48v1a1.19,1.19,0,0,0-1-.46,1.23,1.23,0,0,0-1,.45v-1a2.73,2.73,0,0,1,.66-1.81,2.88,2.88,0,0,1,.93-.71,2.63,2.63,0,0,1,1.16-.26Zm-3.27,3.9a1,1,0,0,1,.27.58V135a.94.94,0,0,1-.31.62.91.91,0,0,1-.66.26,1,1,0,0,1-.72-.31,1,1,0,0,1-.22-.44.77.77,0,0,1,0-.21,1.7,1.7,0,0,1,0-.21,1.09,1.09,0,0,1,.27-.51,1,1,0,0,1,.68-.28A.92.92,0,0,1,228.47,134.19Z"/><path class="cls-1" d="M220.67,151.84a1.3,1.3,0,0,0,.25.77l.15.17a2.25,2.25,0,0,0,.37.29,1.34,1.34,0,0,0,.63.13h2.75a.89.89,0,0,1,.62.24,1,1,0,0,1,.35.73v0a1,1,0,0,1-.32.72.92.92,0,0,1-.64.25h-6a.91.91,0,0,1-.66-.26.94.94,0,0,1-.31-.72,1,1,0,0,1,.28-.71l.15-.12,2.41-1.81A1.62,1.62,0,0,0,220.67,151.84ZM223,146h.14a2.83,2.83,0,0,1,1.21.35,3,3,0,0,1,.79.69,2.79,2.79,0,0,1,.19,3.19,2.81,2.81,0,0,1-.82.86l-2,1.51-.06.05a.93.93,0,0,1-.54.17,1,1,0,0,1-.41-.09,1,1,0,0,1-.37-.31,1,1,0,0,1-.19-.59.43.43,0,0,1,0-.1.92.92,0,0,1,.33-.64l2.1-1.57a1.66,1.66,0,0,0,.28-.24.81.81,0,0,0,.17-.5.82.82,0,0,0-.76-.82h-3.46a.91.91,0,0,1-.66-.26.94.94,0,0,1-.31-.72,1,1,0,0,1,.28-.71,1,1,0,0,1,.68-.27H223Z"/><path class="cls-1" d="M229.83,146l.15,0a1.28,1.28,0,0,1,.31.14.79.79,0,0,1,.18.16,1,1,0,0,1,.24.65v2.09a1.29,1.29,0,0,0-.46-.34,1.27,1.27,0,0,0-.5-.1,1.32,1.32,0,0,0-.55.12,2.13,2.13,0,0,0-.42.32,3.42,3.42,0,0,1-.37.31h0a1,1,0,0,1-.62.22h-.05a.89.89,0,0,1-.7-.35,1,1,0,0,1-.22-.63v-.09a.92.92,0,0,1,.35-.65h0l1.93-1.65h0a.92.92,0,0,1,.53-.22h.17Zm.54,3.16a.92.92,0,0,1,.35.72v4.29h0a.94.94,0,0,1-.26.67.92.92,0,0,1-.71.31.94.94,0,0,1-.7-.29,1,1,0,0,1-.27-.69v-4.32a1,1,0,0,1,1-.94A.91.91,0,0,1,230.37,149.16Z"/><path class="cls-1" d="M132.74,133.3a2.5,2.5,0,0,1,2.07,1,1.31,1.31,0,0,1,.16.21,1.19,1.19,0,0,0,.12.18,2.71,2.71,0,0,1,.32,1.28,2.67,2.67,0,0,1-4.53,1.93,3.23,3.23,0,0,1-.46-.57A2.44,2.44,0,0,1,130,136a2.68,2.68,0,0,1,.14-.86,2.56,2.56,0,0,1,1-1.36,2.59,2.59,0,0,1,1.5-.46Z"/><circle class="cls-1" cx="157.65" cy="153.05" r="2.73"/><circle class="cls-1" cx="142.51" cy="175.24" r="2.7"/><circle class="cls-1" cx="200.52" cy="175.24" r="2.7"/><circle class="cls-1" cx="225.48" cy="168.3" r="2.7"/><path class="cls-2" d="M109.7,186.84c-.35.06-2.46.28-2.81.32l-1,.11a14.2,14.2,0,0,1-6.42-1.89,37,37,0,0,1-9.84-8.17c-11.36-12.62-9.47-35.49,10.25-43.54C99.59,134.28,84.38,167.45,109.7,186.84Z"/><path class="cls-3" d="M108,187s-20.19-7.73-23.51-25.24a61,61,0,0,1,2.84-32s-17.2,8-14,30S108,187,108,187Z"/><path class="cls-4" d="M109.6,187s-26.73-4.58-34.3-26.19-2.52-30-2.52-30a23.9,23.9,0,0,0-11.83,19.88C60.31,164.91,74.73,189.21,109.6,187Z"/><path class="cls-1" d="M118.89,82.8c-1.67-7.32-3.13-17.55-15-19.44l-5-22.56L83.17,59,69.8,43.3S57.75,59.07,61.93,82.67a59.76,59.76,0,0,0-12.87,77.1q1.2,2,2.56,3.86a48.69,48.69,0,0,1,17.28-62.4A59.44,59.44,0,0,1,75,91.73a22.72,22.72,0,0,0,2.39-2.67l2.26,7,.72,2.26.52,1.62a13.06,13.06,0,0,1,4.75-3.24,21.41,21.41,0,0,1,11-1.52,0,0,0,0,1,0,0,37.47,37.47,0,0,1,9.51,2.31c4.2,1.55,3.74,8.34-.74,8.46-14.11.35-28.78,0-29.28,14.06,0,0,6.1-7.09,19.67-8.14s16.16,3.63,27-.55a18.08,18.08,0,0,0,6.32-4.06c.28-.28.55-.57.82-.87a21.5,21.5,0,0,0,5-10.81S120.57,90.11,118.89,82.8Zm-50-5.11,2.17-17.45L82.34,71.57A60.13,60.13,0,0,0,68.88,77.69Zm25.89,9.39s4.7-5.75,8.56-5.55,4.3,5.55,4.3,5.55Z"/><path class="cls-1" d="M130,106.35a18,18,0,0,1-7.14,4.93c-10.86,4.18-13.44-.5-27,.55S76.17,120,76.17,120c.5-14.09,15.18-13.71,29.28-14.06,4.48-.12,4.93-6.9.74-8.46a37.46,37.46,0,0,0-9.51-2.31c.47,0,1,0,1.44,0A50.66,50.66,0,0,1,130,106.35Z"/><path class="cls-1" d="M66.58,105.69A59.38,59.38,0,0,0,62.1,128.4c0,.57,0,1.14,0,1.69,0,1,0,1.94.07,2.89,0,0,0,0,0,0a3,3,0,0,1,0-.38,45.47,45.47,0,0,0-5.62,21.9,44.79,44.79,0,0,0,4.15,18.9,59.56,59.56,0,0,1-9.18-10s0,0,0,0A48.69,48.69,0,0,1,68.77,101C68,102.49,67.25,104.07,66.58,105.69Z"/><path class="cls-5" d="M109.92,187c-.37.07-.74.12-1.1.16l-1,.12c-2.67.24-6.56.26-8.92.26a58.45,58.45,0,0,1-38.12-14c-.11-.2-.18-.4-.27-.6A44.75,44.75,0,0,1,56.34,154,45.47,45.47,0,0,1,62,132.14a3.69,3.69,0,0,0,0,.38c0,.45,0,.92.07,1.35s0,.57,0,.84C63,161,72.29,173.26,86.24,179.9l.51.25c.4.2.78.4,1.18.59a73.63,73.63,0,0,0,13.18,4.57c1.26.33,2.55.64,3.85.93h0C105.95,186.45,109,186.78,109.92,187Z"/></svg>