<svg id="Layer_1" data-name="Layer 1" xmlns="http://www.w3.org/2000/svg" viewBox="0 0 264.58 238.59"><defs><style>.cls-1{fill:#26038a;}.cls-2{fill:#00a2c7;}.cls-3{fill:#d1d1d1;}</style></defs><title>Artboard 13</title><path class="cls-1" d="M130.34,126a3.57,3.57,0,0,0-1.89.61,3.61,3.61,0,0,0-1.28,1.64,3.34,3.34,0,0,0-.25,1.28,3.08,3.08,0,0,0,.07.68,7.12,7.12,0,0,0-6.49-.14,7,7,0,0,0-4,6.42,7,7,0,0,0,1.85,4.81,7.08,7.08,0,0,0,10.13.36l.07-.05.07-.05a2.54,2.54,0,0,1,1.82-.71,2.61,2.61,0,0,1,1.89.77,2.56,2.56,0,0,1,.78,1.91,2.52,2.52,0,0,1-.82,1.89l0,.07a12.62,12.62,0,0,1-4,2.57,12.44,12.44,0,0,1-10.32-.41,12.36,12.36,0,0,1-4.37-3.69,12.2,12.2,0,0,1-2.46-7.45,12,12,0,0,1,3.46-8.63,12.59,12.59,0,0,1,4.07-2.84,12.39,12.39,0,0,1,11.66,1Z"/><path class="cls-1" d="M148.5,124h.61a7.57,7.57,0,0,1,5.06,12.8,8,8,0,0,1-2,1.53l3.71,4.49a5.06,5.06,0,0,0-.61,0,3.39,3.39,0,0,0-2.39.93,3.34,3.34,0,0,0-1.14,2.5l-5.6-6.81,0,0-.14-.21h-4.64v7.13a2.67,2.67,0,0,1-2.67,2.67,2.7,2.7,0,0,1-1.93-.78,2.64,2.64,0,0,1-.75-1.89V132.55a3.43,3.43,0,0,0,1.14.86,3.38,3.38,0,0,0,1.53.36l1.25,0h9a2.2,2.2,0,0,0,1.21-.43,2.17,2.17,0,0,0,.89-1.82,2.24,2.24,0,0,0-2.14-2.21h-7.49v1a2.47,2.47,0,0,1-.89,1.93,2.57,2.57,0,0,1-1.78.68,2.68,2.68,0,0,1-2.67-2.53v-3.82a2.55,2.55,0,0,1,.64-1.71,2.5,2.5,0,0,1,2-.93h9.91Zm8.6,20.49a3.26,3.26,0,0,1,.5.57,2.6,2.6,0,0,1,.46,1.5,2.57,2.57,0,0,1-1,2.07,2.5,2.5,0,0,1-1.68.61h-.29a2.72,2.72,0,0,1-1.39-.61,2.62,2.62,0,0,1-.75-.89,2.74,2.74,0,0,1-.25-1.18,2.62,2.62,0,0,1,2.67-2.67A2.65,2.65,0,0,1,157.1,144.48Z"/><path class="cls-1" d="M167.29,124a3.3,3.3,0,0,0-.93,1.21,3.89,3.89,0,0,0-.29,1.46v7.13h11a2.68,2.68,0,0,1,1.71,4.74,2.65,2.65,0,0,1-1.71.61h-11v1.07a2.5,2.5,0,0,1-1,2,2.7,2.7,0,0,1-1.68.57,2.52,2.52,0,0,1-2.18-1.11,2.58,2.58,0,0,1-.5-1.43V126.63a2.42,2.42,0,0,1,.64-1.68,2.46,2.46,0,0,1,2-1h3.92Zm-1.21,19.61h14a2.55,2.55,0,0,1,1.82.82A2.67,2.67,0,0,1,180,149H163.4a2.7,2.7,0,0,1-1.93-.78,2.64,2.64,0,0,1-.75-1.89v-3.89a3.35,3.35,0,0,0,2.67,1.21ZM180,124h.07a2.58,2.58,0,0,1,1.75.71,2.68,2.68,0,0,1-1.71,4.64H169.46a2.47,2.47,0,0,1-2-1,2.7,2.7,0,0,1-.57-1.68,2.76,2.76,0,0,1,.46-1.53,2.45,2.45,0,0,1,2.07-1.14Z"/><path class="cls-1" d="M195.6,130.31a2.56,2.56,0,0,1,1.32.36,2.63,2.63,0,0,1,1.28,1.57,3,3,0,0,1,.11.78,2.59,2.59,0,0,1-.25,1.11l-7.49,13.41a2.78,2.78,0,0,1-1,1,2.62,2.62,0,0,1-1.39.39,2.56,2.56,0,0,1-1.93-.82,2.6,2.6,0,0,1-.75-1.85,2.71,2.71,0,0,1,.32-1.28l7.52-13.41a2.42,2.42,0,0,1,2.18-1.28Zm7.29,15.32a2.15,2.15,0,0,1,.28,1.11,2.21,2.21,0,0,1-.63,1.58,2.5,2.5,0,0,1-.53.4,2.18,2.18,0,0,1-.91.27l-12.9,0a2.33,2.33,0,0,1-1.17-.31,2.2,2.2,0,0,1-.86-.86,2.15,2.15,0,0,1-.19-1.75,2.18,2.18,0,0,1,1.05-1.31,2.27,2.27,0,0,1,1.07-.29l12.91,0a2,2,0,0,1,1.83,1.07ZM200,124.14a2.52,2.52,0,0,1,.75.39,2.93,2.93,0,0,1,.78.93L212.47,145a2.5,2.5,0,0,1,.36,1.28,2.64,2.64,0,0,1-.82,1.93,2.67,2.67,0,0,1-3.24.36,2.77,2.77,0,0,1-1-1l-9.09-16.23a3.87,3.87,0,0,0-.61-.78,3.11,3.11,0,0,0-.71-.54l-.07-.07a3.83,3.83,0,0,0-1.32-.39h-.36a3.43,3.43,0,0,0-1.21.21l2.35-4.24a2.77,2.77,0,0,1,2.42-1.5A2.5,2.5,0,0,1,200,124.14Z"/><path class="cls-1" d="M116.61,156.52a2.93,2.93,0,0,1,.93.68l11.73,13.87a3.71,3.71,0,0,0,1,.89,3.83,3.83,0,0,0,1.85.46,3.69,3.69,0,0,0,1.6-.36,3.77,3.77,0,0,0,1.07-.75v7.27a2.57,2.57,0,0,1-.68,1.78,2.61,2.61,0,0,1-2,.89,2.51,2.51,0,0,1-2.1-1L118.4,166.5a1.41,1.41,0,0,0-.18-.21,3.47,3.47,0,0,0-1.07-.78,3.61,3.61,0,0,0-1.57-.36h-.07a3.69,3.69,0,0,0-1.6.36,3.07,3.07,0,0,0-1,.78V159a2.56,2.56,0,0,1,.82-1.93,2.6,2.6,0,0,1,1.85-.75A2.7,2.7,0,0,1,116.61,156.52Zm-1,9.38a2.75,2.75,0,0,1,1.25.29,2.29,2.29,0,0,1,1.39,2.1v10.31a2.52,2.52,0,0,1-.75,1.85,2.67,2.67,0,0,1-4.07-.25,2.61,2.61,0,0,1-.53-1.6V168.28a2.35,2.35,0,0,1,.82-1.71,2.62,2.62,0,0,1,1.82-.68Zm18.29-9a2.65,2.65,0,0,1,1,2v10.34a2.3,2.3,0,0,1-1,1.82,2.87,2.87,0,0,1-1.71.53,2.61,2.61,0,0,1-2.18-1,2.08,2.08,0,0,1-.5-1.35V159a2.56,2.56,0,0,1,.82-1.93,2.52,2.52,0,0,1,1.85-.75A2.55,2.55,0,0,1,133.87,156.94Z"/><path class="cls-1" d="M142.29,159.1a12,12,0,0,1,7.81-2.8,12.2,12.2,0,0,1,6.26,1.68,12.51,12.51,0,0,1,0,21.61,12.19,12.19,0,0,1-6.26,1.68,12.43,12.43,0,0,1-12.16-9.91,3.2,3.2,0,0,0,.93.64,3.89,3.89,0,0,0,1.46.29,3.68,3.68,0,0,0,1.93-.53,3.75,3.75,0,0,0,1-1,7.1,7.1,0,0,0,6.85,5.21,6.82,6.82,0,0,0,5-2.09,7.19,7.19,0,0,0,0-10.09,7.05,7.05,0,0,0-9.31-.62,7,7,0,0,0-2.53,3.74,3.61,3.61,0,0,0-1.39-1.21,3.34,3.34,0,0,0-1.57-.39,3.26,3.26,0,0,0-1.25.25,3.57,3.57,0,0,0-1.14.71A12.27,12.27,0,0,1,142.29,159.1Z"/><path class="cls-1" d="M190.61,156.37a2.73,2.73,0,0,1,1.43.82,2.57,2.57,0,0,1,.68,1.78v6a3.58,3.58,0,0,0-2.67-1.21,3.48,3.48,0,0,0-1.64.39,5.94,5.94,0,0,0-1.05.82l-.77.71-5.74,5.13a.1.1,0,0,1-.07,0v0a2.78,2.78,0,0,1-.68.39,2.6,2.6,0,0,1-1,.21,2.44,2.44,0,0,1-1.21-.32,3.69,3.69,0,0,1-.57-.36l-5.6-5-.55-.52q-.48-.45-.77-.66a3.39,3.39,0,0,0-.86-.54,3.29,3.29,0,0,0-1.43-.32,3.44,3.44,0,0,0-1.68.43,3.69,3.69,0,0,0-1,.82v-6.17a2.64,2.64,0,0,1,.3-1.11,2.86,2.86,0,0,1,.7-.86,2.67,2.67,0,0,1,1.5-.54.32.32,0,0,1,.14,0,2.87,2.87,0,0,1,1.5.43q.28.21.68.57l8.84,7.92,9-8.06.18-.14a2.83,2.83,0,0,1,.71-.46,3.22,3.22,0,0,1,.68-.21,1.83,1.83,0,0,1,.36,0h.11A2.23,2.23,0,0,1,190.61,156.37Zm-20.83,8.81a2.58,2.58,0,0,1,1,2v11.45a2.67,2.67,0,0,1-2.67,2.67,2.7,2.7,0,0,1-1.93-.78,2.64,2.64,0,0,1-.75-1.89V167.14a2.48,2.48,0,0,1,.78-1.78,2.58,2.58,0,0,1,1.89-.78A2.65,2.65,0,0,1,169.78,165.18Zm22.22.21a2.5,2.5,0,0,1,.71,1.68v11.52a2.67,2.67,0,0,1-2.67,2.67,2.62,2.62,0,0,1-2.67-2.67V167.11a2.41,2.41,0,0,1,.82-1.85,2.67,2.67,0,0,1,1.85-.71A2.55,2.55,0,0,1,192,165.4Z"/><path class="cls-1" d="M200.24,157.19a2.57,2.57,0,0,1,.68,1.78v7.56a3.31,3.31,0,0,0-2.67-1.25,3.42,3.42,0,0,0-2.67,1.21v-7.56a2.55,2.55,0,0,1,.64-1.71,2.5,2.5,0,0,1,2-.93h.07A2.51,2.51,0,0,1,200.24,157.19Zm.68,21.36v0a2.67,2.67,0,0,1-2.67,2.67,2.68,2.68,0,0,1-2.67-2.67v-7.52a3.38,3.38,0,0,0,2.67,1.25,3.28,3.28,0,0,0,2.67-1.28Z"/><path class="cls-1" d="M230.82,171.25a5.81,5.81,0,0,0-3.49-1.34,5.68,5.68,0,0,0-1.08,0,5.52,5.52,0,0,0-1.51.4,7,7,0,0,0-3,2.57,8.12,8.12,0,0,0-.58,1l-.06,0A7.08,7.08,0,0,1,211,173.6a7.21,7.21,0,0,1-.32-9.27,7.08,7.08,0,0,1,2.46-2,7.12,7.12,0,0,1,6.49.14,3.08,3.08,0,0,1-.07-.68,3.35,3.35,0,0,1,.25-1.28,3.61,3.61,0,0,1,1.28-1.64,3.57,3.57,0,0,1,1.89-.61,12.39,12.39,0,0,0-11.66-1,12.6,12.6,0,0,0-4.07,2.84,12,12,0,0,0-3.46,8.63,12.2,12.2,0,0,0,2.46,7.45,12.36,12.36,0,0,0,4.37,3.69,12.44,12.44,0,0,0,10.32.41,12.61,12.61,0,0,0,4-2.57l0-.07c.38-.37,1.25-1.91,1.53-2.26h0l.11,0a2.65,2.65,0,0,1,3,.71,3.17,3.17,0,0,0-1.2-2.54l0,0,0,0a2.85,2.85,0,0,1,3.76.24A3.33,3.33,0,0,0,230.82,171.25Z"/><path class="cls-2" d="M218.39,129.64a1.3,1.3,0,0,0,.25.77l.15.17a2.25,2.25,0,0,0,.37.29,1.34,1.34,0,0,0,.63.13h2.75a.89.89,0,0,1,.62.24,1,1,0,0,1,.35.73v0a1,1,0,0,1-.32.72.92.92,0,0,1-.64.25h-6a.91.91,0,0,1-.66-.26.94.94,0,0,1-.31-.72,1,1,0,0,1,.28-.71l.15-.12,2.41-1.81A1.62,1.62,0,0,0,218.39,129.64Zm2.37-5.84h.14a2.83,2.83,0,0,1,1.21.35,3,3,0,0,1,.79.69,2.79,2.79,0,0,1,.19,3.19,2.81,2.81,0,0,1-.82.86l-2,1.51-.06.05a.93.93,0,0,1-.54.17,1,1,0,0,1-.41-.09,1,1,0,0,1-.37-.31,1,1,0,0,1-.19-.59.43.43,0,0,1,0-.1.92.92,0,0,1,.33-.64l2.1-1.57a1.66,1.66,0,0,0,.28-.24.81.81,0,0,0,.17-.5.82.82,0,0,0-.76-.82h-3.46a.91.91,0,0,1-.66-.26.94.94,0,0,1-.31-.72,1,1,0,0,1,.28-.71,1,1,0,0,1,.68-.27h3.4Z"/><path class="cls-2" d="M229.46,123.8a2.76,2.76,0,0,1,2.75,2.78v3.61a2.71,2.71,0,0,1-.77,1.94,2.64,2.64,0,0,1-2,.84h-2.19a2.65,2.65,0,0,1-1.27-.31,2.83,2.83,0,0,1-1-.85,2.75,2.75,0,0,1-.5-1.61v-1a1.22,1.22,0,0,0,1,.46,1.19,1.19,0,0,0,1-.46v1a.78.78,0,0,0,.22.55.76.76,0,0,0,.59.26h2.19a.82.82,0,0,0,.81-.81v-3.61a.82.82,0,0,0-.81-.81h-2.19a.77.77,0,0,0-.64.33.75.75,0,0,0-.17.48v1a1.19,1.19,0,0,0-1-.46,1.23,1.23,0,0,0-1,.45v-1a2.73,2.73,0,0,1,.66-1.81,2.88,2.88,0,0,1,.93-.71,2.63,2.63,0,0,1,1.16-.26Zm-3.27,3.9a1,1,0,0,1,.27.58v.21a.94.94,0,0,1-.31.62.91.91,0,0,1-.66.26,1,1,0,0,1-.72-.31,1,1,0,0,1-.22-.44.77.77,0,0,1,0-.21,1.7,1.7,0,0,1,0-.21,1.09,1.09,0,0,1,.27-.51,1,1,0,0,1,.68-.28A.92.92,0,0,1,226.19,127.71Z"/><path class="cls-2" d="M218.39,145.36a1.3,1.3,0,0,0,.25.77l.15.17a2.25,2.25,0,0,0,.37.29,1.34,1.34,0,0,0,.63.13h2.75a.89.89,0,0,1,.62.24,1,1,0,0,1,.35.73v0a1,1,0,0,1-.32.72.92.92,0,0,1-.64.25h-6a.91.91,0,0,1-.66-.26.94.94,0,0,1-.31-.72,1,1,0,0,1,.28-.71l.15-.12,2.41-1.81A1.62,1.62,0,0,0,218.39,145.36Zm2.37-5.84h.14a2.83,2.83,0,0,1,1.21.35,3,3,0,0,1,.79.69,2.79,2.79,0,0,1,.19,3.19,2.81,2.81,0,0,1-.82.86l-2,1.51-.06.05a.93.93,0,0,1-.54.17,1,1,0,0,1-.41-.09,1,1,0,0,1-.37-.31,1,1,0,0,1-.19-.59.43.43,0,0,1,0-.1.92.92,0,0,1,.33-.64l2.1-1.57a1.66,1.66,0,0,0,.28-.24.81.81,0,0,0,.17-.5.82.82,0,0,0-.76-.82h-3.46a.91.91,0,0,1-.66-.26.94.94,0,0,1-.31-.72,1,1,0,0,1,.28-.71,1,1,0,0,1,.68-.27h3.4Z"/><path class="cls-2" d="M227.54,139.52l.15,0a1.28,1.28,0,0,1,.31.14.79.79,0,0,1,.18.16,1,1,0,0,1,.24.65v2.09a1.29,1.29,0,0,0-.46-.34,1.27,1.27,0,0,0-.5-.1,1.32,1.32,0,0,0-.55.12,2.13,2.13,0,0,0-.42.32,3.42,3.42,0,0,1-.37.31h0a1,1,0,0,1-.62.22h-.05a.89.89,0,0,1-.7-.35,1,1,0,0,1-.22-.63v-.09a.92.92,0,0,1,.35-.65h0l1.93-1.65h0a.92.92,0,0,1,.53-.22h.17Zm.54,3.16a.92.92,0,0,1,.35.72v4.29h0a.94.94,0,0,1-.26.67.92.92,0,0,1-.71.31.94.94,0,0,1-.7-.29,1,1,0,0,1-.27-.69v-4.32a1,1,0,0,1,1-.94A.91.91,0,0,1,228.08,142.67Z"/><path class="cls-2" d="M130.45,126.81a2.5,2.5,0,0,1,2.07,1,1.31,1.31,0,0,1,.16.21,1.19,1.19,0,0,0,.12.18,2.71,2.71,0,0,1,.32,1.28,2.67,2.67,0,0,1-4.53,1.93,3.23,3.23,0,0,1-.46-.57,2.44,2.44,0,0,1-.39-1.36,2.68,2.68,0,0,1,.14-.86,2.56,2.56,0,0,1,1-1.36,2.59,2.59,0,0,1,1.5-.46Z"/><circle class="cls-2" cx="155.36" cy="146.57" r="2.73"/><circle class="cls-2" cx="140.23" cy="168.76" r="2.7"/><circle class="cls-2" cx="198.24" cy="168.76" r="2.7"/><circle class="cls-2" cx="223.2" cy="161.81" r="2.7"/><path class="cls-3" d="M107.42,180.35c-.35.06-2.46.28-2.81.32l-1,.11a14.2,14.2,0,0,1-6.42-1.89,37,37,0,0,1-9.84-8.17C76,158.11,77.9,135.24,97.61,127.19,97.3,127.79,82.09,161,107.42,180.35Z"/><path class="cls-3" d="M105.66,180.51s-20.19-7.73-23.51-25.24a61,61,0,0,1,2.84-32s-17.2,8-14,30S105.66,180.51,105.66,180.51Z"/><path class="cls-3" d="M107.31,180.51S80.58,175.93,73,154.32s-2.52-30-2.52-30a23.9,23.9,0,0,0-11.83,19.88C58,158.42,72.44,182.72,107.31,180.51Z"/><path class="cls-3" d="M116.61,76.31c-1.67-7.32-3.13-17.55-15-19.44l-5-22.56L80.89,52.48,67.52,36.82S55.46,52.58,59.64,76.18a59.76,59.76,0,0,0-12.87,77.1q1.2,2,2.56,3.86a48.69,48.69,0,0,1,17.28-62.4,59.44,59.44,0,0,1,6.1-9.51,22.72,22.72,0,0,0,2.39-2.67l2.26,7,.72,2.26.52,1.62a13.06,13.06,0,0,1,4.75-3.24,21.41,21.41,0,0,1,11-1.52,0,0,0,0,1,0,0A37.47,37.47,0,0,1,103.9,91c4.2,1.55,3.74,8.34-.74,8.46-14.11.35-28.78,0-29.28,14.06,0,0,6.1-7.09,19.67-8.14s16.16,3.63,27-.55a18.08,18.08,0,0,0,6.32-4.06c.28-.28.55-.57.82-.87a21.5,21.5,0,0,0,5-10.81S118.28,83.62,116.61,76.31Zm-50-5.11,2.17-17.45L80.05,65.08A60.13,60.13,0,0,0,66.6,71.2Zm25.89,9.39S97.18,74.84,101,75s4.3,5.55,4.3,5.55Z"/><path class="cls-3" d="M127.72,99.86a18,18,0,0,1-7.14,4.93c-10.86,4.18-13.44-.5-27,.55s-19.67,8.14-19.67,8.14c.5-14.09,15.18-13.71,29.28-14.06,4.48-.12,4.93-6.9.74-8.46a37.46,37.46,0,0,0-9.51-2.31c.47,0,1,0,1.44,0A50.66,50.66,0,0,1,127.72,99.86Z"/><path class="cls-3" d="M64.29,99.2a59.38,59.38,0,0,0-4.48,22.72c0,.57,0,1.14,0,1.69,0,1,0,1.94.07,2.89,0,0,0,0,0,0a3,3,0,0,1,0-.38A45.47,45.47,0,0,0,54.25,148a44.79,44.79,0,0,0,4.15,18.9,59.56,59.56,0,0,1-9.18-10s0,0,0,0a48.69,48.69,0,0,1,17.28-62.4C65.68,96,65,97.58,64.29,99.2Z"/><path class="cls-3" d="M107.64,180.5c-.37.07-.74.12-1.1.16l-1,.12c-2.67.24-6.56.26-8.92.26a58.45,58.45,0,0,1-38.12-14c-.11-.2-.18-.4-.27-.6a44.75,44.75,0,0,1-4.14-18.9,45.47,45.47,0,0,1,5.62-21.9,3.69,3.69,0,0,0,0,.38c0,.45,0,.92.07,1.35s0,.57,0,.84C60.67,154.52,70,166.77,84,173.41l.51.25c.4.2.78.4,1.18.59a73.63,73.63,0,0,0,13.18,4.57c1.26.33,2.55.64,3.85.93h0C103.66,180,106.67,180.29,107.64,180.5Z"/></svg>